<svg width="18" height="17" viewBox="0 0 18 17" fill="none" xmlns="http://www.w3.org/2000/svg">
<path fill-rule="evenodd" clip-rule="evenodd" d="M15.1355 6.24187C15.1355 4.18251 13.4661 2.51307 11.4067 2.51307V0.479174C14.5894 0.479174 17.1694 3.05922 17.1694 6.24187C17.1694 9.42452 14.5894 12.0046 11.4067 12.0046V9.97067C13.4661 9.97067 15.1355 8.30123 15.1355 6.24187ZM8.82878 7.25839C8.08045 7.25901 7.474 7.86584 7.474 8.61432C7.474 9.36317 8.08107 9.97024 8.82993 9.97024V9.97046H11.4063V12.0044H8.69444V12.0015C6.88511 11.9304 5.44011 10.4411 5.44011 8.61432C5.44011 6.78742 6.88531 5.29807 8.69482 5.22714V5.22449H8.82993L11.5423 5.22449C12.1039 5.22449 12.5592 5.6798 12.5592 6.24144C12.5592 6.80308 12.1039 7.25839 11.5423 7.25839L8.82993 7.25839L8.82878 7.25839ZM2.86385 8.47898C2.86385 5.184 5.53496 2.5129 8.82993 2.5129V0.479004C4.41167 0.479004 0.829954 4.06072 0.829954 8.47898C0.829954 12.8521 4.33888 16.4057 8.69482 16.4778V16.4788H8.78322C8.79878 16.4789 8.81435 16.479 8.82993 16.479V16.4788H11.5423C12.1039 16.4788 12.5592 16.0235 12.5592 15.4619C12.5592 14.9002 12.1039 14.4449 11.5423 14.4449H8.78959C5.51318 14.4232 2.86385 11.7605 2.86385 8.47898ZM11.4063 0.479004V2.5129L8.83004 2.5129V0.479004L11.4063 0.479004Z" fill="black"/>
</svg>
