<svg width="31" height="26" viewBox="0 0 31 26" fill="none" xmlns="http://www.w3.org/2000/svg">
<path d="M23.0533 0.272727C25.0987 0.272727 26.7578 1 28.0305 2.45455C29.3487 3.90909 30.0078 5.70455 30.0078 7.84091C30.0078 9.56818 29.6896 11.1818 29.0533 12.6818C28.4169 14.1818 27.5987 15.5455 26.5987 16.7727C25.6442 17.9545 24.5987 19.0227 23.4624 19.9773C22.3714 20.8864 21.3487 21.6818 20.3942 22.3636C19.4396 23 18.6442 23.4773 18.0078 23.7955C17.4169 24.1136 17.1442 24.2727 17.1896 24.2727L15.6214 22.2273C16.0305 22.0455 16.5533 21.6818 17.1896 21.1364C17.8714 20.5909 18.5305 19.9545 19.1669 19.2273C19.8487 18.5 20.4169 17.7273 20.8714 16.9091C21.3714 16.0909 21.6214 15.2955 21.6214 14.5227C21.6214 14.0682 21.3487 13.6364 20.8033 13.2273C20.3033 12.7727 19.7351 12.25 19.0987 11.6591C18.5078 11.0682 17.9396 10.3864 17.3942 9.61364C16.8942 8.84091 16.6442 7.86364 16.6442 6.68182C16.6442 4.72727 17.2805 3.18182 18.5533 2.04545C19.826 0.863636 21.326 0.272727 23.0533 0.272727ZM6.55327 0C7.59872 0 8.55327 0.227273 9.4169 0.681818C10.326 1.09091 11.0987 1.68182 11.7351 2.45455C12.3714 3.22727 12.8487 4.13636 13.1669 5.18182C13.5305 6.22727 13.7124 7.34091 13.7124 8.52273C13.7124 10.8864 13.1896 13.0682 12.1442 15.0682C11.0987 17.0682 9.96236 18.7955 8.73509 20.25C7.23509 21.9773 5.57599 23.5682 3.75781 25.0227L1.84872 23.1818C2.25781 22.9091 2.73509 22.4773 3.28054 21.8864C3.82599 21.25 4.32599 20.5455 4.78054 19.7727C5.28054 19 5.68963 18.1818 6.00781 17.3182C6.37145 16.4545 6.55327 15.6136 6.55327 14.7955C6.55327 14.25 6.21236 13.7955 5.53054 13.4318C4.84872 13.0227 4.09872 12.5455 3.28054 12C2.46236 11.4545 1.71236 10.7727 1.03054 9.95455C0.348722 9.09091 0.0078125 7.90909 0.0078125 6.40909C0.0078125 5.54545 0.189631 4.72727 0.553267 3.95455C0.916903 3.18182 1.39418 2.5 1.98509 1.90909C2.62145 1.31818 3.32599 0.863636 4.09872 0.545455C4.9169 0.181818 5.73509 0 6.55327 0Z" fill="#38A5FC"/>
</svg>
