<svg width="18" height="18" viewBox="0 0 18 18" fill="none" xmlns="http://www.w3.org/2000/svg">
<path opacity="0.75" fill-rule="evenodd" clip-rule="evenodd" d="M4.75827 4.75736C4.36774 5.14788 4.36774 5.78105 4.75827 6.17157L7.58669 9L4.75827 11.8284C4.36774 12.219 4.36774 12.8521 4.75827 13.2426C5.14879 13.6332 5.78195 13.6332 6.17248 13.2426L9.00091 10.4142L11.8293 13.2426C12.2199 13.6332 12.853 13.6332 13.2435 13.2426C13.6341 12.8521 13.6341 12.219 13.2435 11.8284L10.4151 9L13.2435 6.17157C13.6341 5.78105 13.6341 5.14788 13.2435 4.75736C12.853 4.36684 12.2199 4.36683 11.8293 4.75736L9.00091 7.58579L6.17248 4.75736C5.78195 4.36684 5.14879 4.36684 4.75827 4.75736Z" fill="#1E2245"/>
</svg>
