<svg width="19" height="20" viewBox="0 0 19 20" fill="none" xmlns="http://www.w3.org/2000/svg">
<path d="M18.9907 10.1868C18.9907 9.36743 18.926 8.76949 18.7861 8.14941H9.68994V11.8477H15.0292C14.9216 12.7668 14.3403 14.1509 13.0485 15.081L13.0304 15.2048L15.9065 17.4967L16.1057 17.5171C17.9357 15.7786 18.9907 13.2208 18.9907 10.1868Z" fill="#4285F4"/>
<path d="M9.68906 19.9312C12.3049 19.9312 14.5008 19.0453 16.1048 17.5173L13.0476 15.0812C12.2295 15.6681 11.1315 16.0778 9.68906 16.0778C7.12706 16.0778 4.9526 14.3394 4.17747 11.9365L4.06385 11.9464L1.07329 14.3271L1.03418 14.439C2.62734 17.6944 5.89983 19.9312 9.68906 19.9312Z" fill="#34A853"/>
<path d="M4.17814 11.9354C3.97361 11.3153 3.85525 10.6509 3.85525 9.96437C3.85525 9.2778 3.97361 8.61345 4.16738 7.99338L4.16196 7.86131L1.13393 5.44238L1.03485 5.49086C0.378235 6.84177 0.00146484 8.3588 0.00146484 9.96437C0.00146484 11.5699 0.378235 13.0869 1.03485 14.4378L4.17814 11.9354Z" fill="#FBBC05"/>
<path d="M9.68905 3.85336C11.5083 3.85336 12.7354 4.66168 13.4352 5.33718L16.1694 2.59107C14.4901 0.985496 12.3048 0 9.68905 0C5.89983 0 2.62734 2.23672 1.03418 5.49214L4.1667 7.99466C4.9526 5.59183 7.12706 3.85336 9.68905 3.85336Z" fill="#EB4335"/>
</svg>
