<svg width="24" height="21" viewBox="0 0 24 21" fill="none" xmlns="http://www.w3.org/2000/svg">
<path d="M18.4364 0.218182C20.0727 0.218182 21.4 0.8 22.4182 1.96364C23.4727 3.12727 24 4.56364 24 6.27273C24 7.65455 23.7455 8.94545 23.2364 10.1455C22.7273 11.3455 22.0727 12.4364 21.2727 13.4182C20.5091 14.3636 19.6727 15.2182 18.7636 15.9818C17.8909 16.7091 17.0727 17.3455 16.3091 17.8909C15.5455 18.4 14.9091 18.7818 14.4 19.0364C13.9273 19.2909 13.7091 19.4182 13.7455 19.4182L12.4909 17.7818C12.8182 17.6364 13.2364 17.3455 13.7455 16.9091C14.2909 16.4727 14.8182 15.9636 15.3273 15.3818C15.8727 14.8 16.3273 14.1818 16.6909 13.5273C17.0909 12.8727 17.2909 12.2364 17.2909 11.6182C17.2909 11.2545 17.0727 10.9091 16.6364 10.5818C16.2364 10.2182 15.7818 9.8 15.2727 9.32727C14.8 8.85455 14.3455 8.30909 13.9091 7.69091C13.5091 7.07273 13.3091 6.29091 13.3091 5.34545C13.3091 3.78182 13.8182 2.54545 14.8364 1.63636C15.8545 0.690909 17.0545 0.218182 18.4364 0.218182ZM5.23636 0C6.07273 0 6.83636 0.181818 7.52727 0.545455C8.25455 0.872727 8.87273 1.34545 9.38182 1.96364C9.89091 2.58182 10.2727 3.30909 10.5273 4.14545C10.8182 4.98182 10.9636 5.87273 10.9636 6.81818C10.9636 8.70909 10.5455 10.4545 9.70909 12.0545C8.87273 13.6545 7.96364 15.0364 6.98182 16.2C5.78182 17.5818 4.45455 18.8545 3 20.0182L1.47273 18.5455C1.8 18.3273 2.18182 17.9818 2.61818 17.5091C3.05455 17 3.45455 16.4364 3.81818 15.8182C4.21818 15.2 4.54545 14.5455 4.8 13.8545C5.09091 13.1636 5.23636 12.4909 5.23636 11.8364C5.23636 11.4 4.96364 11.0364 4.41818 10.7455C3.87273 10.4182 3.27273 10.0364 2.61818 9.6C1.96364 9.16364 1.36364 8.61818 0.818182 7.96364C0.272727 7.27273 0 6.32727 0 5.12727C0 4.43636 0.145455 3.78182 0.436364 3.16364C0.727273 2.54545 1.10909 2 1.58182 1.52727C2.09091 1.05455 2.65455 0.690909 3.27273 0.436364C3.92727 0.145455 4.58182 0 5.23636 0Z" fill="#E5EDED"/>
</svg>
