<svg width="85" height="27" viewBox="0 0 85 27" fill="none" xmlns="http://www.w3.org/2000/svg">
<path fill-rule="evenodd" clip-rule="evenodd" d="M64.1508 3.64812L77.1013 2.51509C79.302 2.32256 81.2422 3.95052 81.4347 6.15125L82.5677 19.1018C82.7603 21.3025 81.1323 23.2426 78.9316 23.4352L65.981 24.5682C63.7803 24.7607 61.8402 23.1328 61.6476 20.9321L60.5146 7.98152C60.3221 5.78079 61.95 3.84066 64.1508 3.64812ZM58.5222 8.15583C58.2334 4.85473 60.6754 1.94454 63.9765 1.65573L76.927 0.522705C80.2281 0.233896 83.1383 2.67584 83.4271 5.97694L84.5601 18.9275C84.8489 22.2286 82.407 25.1388 79.1059 25.4276L66.1553 26.5606C62.8542 26.8494 59.944 24.4075 59.6552 21.1064L58.5222 8.15583ZM76.6829 8.25839L77.537 18.0211L75.7522 18.1772L77.5374 18.0211L76.6833 8.25836L76.6829 8.25839ZM70.0395 18.8457C70.0394 18.8457 70.0392 18.8457 70.0391 18.8457C69.9975 18.8493 69.9561 18.8525 69.9149 18.8551C69.9562 18.8525 69.9977 18.8493 70.0395 18.8457C70.0395 18.8457 70.0395 18.8457 70.0395 18.8457ZM71.955 18.2565C71.4638 18.5454 70.9135 18.7319 70.3039 18.8159C70.9136 18.7319 71.4641 18.5454 71.9554 18.2565C72.5252 17.9162 72.9616 17.4423 73.2645 16.835C73.5674 16.2276 73.6802 15.4823 73.6029 14.599L73.0758 8.57398L73.0754 8.57401L73.6025 14.599C73.6798 15.4823 73.567 16.2276 73.2641 16.835C72.9612 17.4423 72.5248 17.9162 71.955 18.2565ZM68.0109 18.7371L68.0091 18.7364C67.3797 18.4876 66.8589 18.077 66.4484 17.5085L66.4474 17.507C66.0428 16.9323 65.8058 16.1894 65.727 15.288L65.1868 9.1136L67.2708 8.93127L67.8122 15.1196C67.8771 15.8607 68.099 16.3674 68.4527 16.6723C68.8197 16.9799 69.3047 17.1152 69.9255 17.0608C70.5367 17.0074 70.9866 16.7905 71.295 16.423C71.5992 16.0604 71.7343 15.5228 71.6695 14.7822L71.1281 8.5938L73.2121 8.41147L73.7523 14.5859C73.8313 15.4885 73.7172 16.2633 73.3987 16.9019C73.0833 17.5343 72.6274 18.0299 72.0323 18.3853C71.4498 18.7279 70.7884 18.9307 70.0525 18.9951C69.3167 19.0595 68.6353 18.9746 68.0109 18.7371ZM75.6159 18.3398L74.7356 8.27819L76.8196 8.09586L77.6999 18.1574L75.6159 18.3398ZM38.0988 20.176C37.2588 20.176 36.5088 19.972 35.8488 19.564C35.1888 19.156 34.6668 18.598 34.2828 17.89C33.8988 17.182 33.7068 16.378 33.7068 15.478C33.7068 14.578 33.8988 13.78 34.2828 13.084C34.6668 12.376 35.1888 11.824 35.8488 11.428C36.5088 11.02 37.2588 10.816 38.0988 10.816C38.7708 10.816 39.3588 10.942 39.8628 11.194C40.3668 11.446 40.7748 11.8 41.0868 12.256V7H43.3908V19.96H41.3388L41.0868 18.682C40.7988 19.078 40.4148 19.426 39.9348 19.726C39.4668 20.026 38.8548 20.176 38.0988 20.176ZM38.5848 18.16C39.3288 18.16 39.9348 17.914 40.4028 17.422C40.8828 16.918 41.1228 16.276 41.1228 15.496C41.1228 14.716 40.8828 14.08 40.4028 13.588C39.9348 13.084 39.3288 12.832 38.5848 12.832C37.8528 12.832 37.2468 13.078 36.7668 13.57C36.2868 14.062 36.0468 14.698 36.0468 15.478C36.0468 16.258 36.2868 16.9 36.7668 17.404C37.2468 17.908 37.8528 18.16 38.5848 18.16ZM0 19.96V7.36H2.304V12.598H7.956V7.36H10.26V19.96H7.956V14.47H2.304V19.96H0ZM15.733 20.176C14.965 20.176 14.335 20.056 13.843 19.816C13.351 19.564 12.985 19.234 12.745 18.826C12.505 18.418 12.385 17.968 12.385 17.476C12.385 16.648 12.709 15.976 13.357 15.46C14.005 14.944 14.977 14.686 16.273 14.686H18.541V14.47C18.541 13.858 18.367 13.408 18.019 13.12C17.671 12.832 17.239 12.688 16.723 12.688C16.255 12.688 15.847 12.802 15.499 13.03C15.151 13.246 14.935 13.57 14.851 14.002H12.601C12.661 13.354 12.877 12.79 13.249 12.31C13.633 11.83 14.125 11.464 14.725 11.212C15.325 10.948 15.997 10.816 16.741 10.816C18.013 10.816 19.015 11.134 19.747 11.77C20.479 12.406 20.845 13.306 20.845 14.47V19.96H18.883L18.667 18.52C18.403 19 18.031 19.396 17.551 19.708C17.083 20.02 16.477 20.176 15.733 20.176ZM16.255 18.376C16.915 18.376 17.425 18.16 17.785 17.728C18.157 17.296 18.391 16.762 18.487 16.126H16.525C15.913 16.126 15.475 16.24 15.211 16.468C14.947 16.684 14.815 16.954 14.815 17.278C14.815 17.626 14.947 17.896 15.211 18.088C15.475 18.28 15.823 18.376 16.255 18.376ZM23.0437 11.032V19.96H25.3477V15.352C25.3477 14.536 25.5517 13.9 25.9597 13.444C26.3797 12.988 26.9137 12.76 27.5617 12.76C28.2217 12.76 28.7077 12.964 29.0197 13.372C29.3317 13.78 29.4877 14.368 29.4877 15.136V19.96H31.7917V14.92C31.7917 13.576 31.4857 12.556 30.8737 11.86C30.2617 11.164 29.4037 10.816 28.2997 10.816C27.5917 10.816 26.9737 10.972 26.4457 11.284C25.9297 11.596 25.5337 12.016 25.2577 12.544L25.0777 11.032H23.0437ZM48.923 19.366L46.853 23.92H49.301L54.971 11.032H52.523L49.913 17.314L47.411 11.032H44.909L48.383 19.366H48.923Z" fill="#1E2245"/>
</svg>
