<svg width="76" height="86" viewBox="0 0 76 86" fill="none" xmlns="http://www.w3.org/2000/svg">
<path fill-rule="evenodd" clip-rule="evenodd" d="M0 0H2H13H44V0.00390625C44.0739 0.00274658 44.1477 0.00183105 44.2217 0.0012207C44.3143 0.000427246 44.4071 0 44.5 0C61.897 0 76 14.103 76 31.5C76 47.0208 64.7748 59.9198 50 62.5215V86H49H37H13H3H0V0ZM44 50H37V73H13V13H44V13.0067C44.1661 13.0023 44.3328 13 44.5 13C54.7173 13 63 21.2827 63 31.5C63 41.7173 54.7173 50 44.5 50C44.3328 50 44.1661 49.9978 44 49.9934V50Z" fill="white"/>
</svg>
