<svg width="12" height="12" viewBox="0 0 12 12" fill="none" xmlns="http://www.w3.org/2000/svg">
<path fill-rule="evenodd" clip-rule="evenodd" d="M10.8842 1.11612C11.3724 1.60427 11.3724 2.39573 10.8842 2.88388L3.0206 10.7475C2.53245 11.2357 1.74099 11.2357 1.25284 10.7475C0.76468 10.2594 0.76468 9.46791 1.25284 8.97975L9.11647 1.11612C9.60463 0.627961 10.3961 0.627961 10.8842 1.11612Z" fill="#CAD2D5"/>
<path fill-rule="evenodd" clip-rule="evenodd" d="M1.10118 1.13131C1.58095 0.634906 2.37229 0.621417 2.86869 1.10118L11.0051 8.96482C11.5015 9.44458 11.5149 10.2359 11.0352 10.7323C10.5554 11.2287 9.76408 11.2422 9.26767 10.7625L1.13131 2.89882C0.634906 2.41906 0.621417 1.62771 1.10118 1.13131Z" fill="#CAD2D5"/>
</svg>
