<svg width="15" height="15" viewBox="0 0 15 15" fill="none" xmlns="http://www.w3.org/2000/svg">
<path fill-rule="evenodd" clip-rule="evenodd" d="M11 1.5H4C2.61926 1.5 1.5 2.61929 1.5 4V11C1.5 12.3807 2.61926 13.5 4 13.5H11C12.3807 13.5 13.5 12.3807 13.5 11V4C13.5 2.61929 12.3807 1.5 11 1.5ZM4 0C1.79089 0 0 1.79086 0 4V11C0 13.2091 1.79089 15 4 15H11C13.2091 15 15 13.2091 15 11V4C15 1.79086 13.2091 0 11 0H4ZM4.5 5.75C4.5 5.33578 4.83582 5 5.25 5H9.75C10.1642 5 10.5 5.33578 10.5 5.75C10.5 6.16422 10.1642 6.5 9.75 6.5H5.25C4.83582 6.5 4.5 6.16422 4.5 5.75ZM5.25 8.5C4.83582 8.5 4.5 8.83578 4.5 9.25C4.5 9.66422 4.83582 10 5.25 10H7.75C8.16418 10 8.5 9.66422 8.5 9.25C8.5 8.83578 8.16418 8.5 7.75 8.5H5.25Z" fill="white"/>
</svg>
