<svg width="46" height="46" viewBox="0 0 46 46" fill="none" xmlns="http://www.w3.org/2000/svg">
<g clip-path="url(#clip0)">
<path d="M1.53336 18.3999H32.9666C34.2363 18.4012 35.2653 19.4302 35.2666 20.6999H44.4666C45.3131 20.7009 45.999 21.3868 46 22.2333V24.5333C45.9966 27.4958 43.5959 29.8965 40.6334 29.8999H35.2667C35.2654 31.1696 34.2364 32.1986 32.9667 32.1999C30.4262 32.1999 28.3667 34.2594 28.3667 36.7999C28.3667 39.3404 30.4262 41.3999 32.9667 41.3999H35.2667C36.2838 41.3986 37.2596 41.8021 37.9787 42.5212C38.6979 43.2404 39.1013 44.2161 39.1 45.2332C39.1001 45.4365 39.0193 45.6315 38.8755 45.7754C38.7317 45.9191 38.5367 45.9999 38.3333 45.9999H25.3H20.7H7.66664C7.46332 46 7.26827 45.9192 7.12443 45.7754C6.98068 45.6316 6.89991 45.4366 6.89991 45.2332C6.90243 43.1171 8.61718 41.4023 10.7333 41.3998H13.0333C15.5738 41.3998 17.6333 39.3403 17.6333 36.7998C17.6333 34.2593 15.5738 32.1998 13.0333 32.1998H8.43327C3.77784 32.1945 0.00521469 28.4219 -8.7738e-05 23.7664V19.9331C0.000991821 19.0868 0.686855 18.4009 1.53336 18.3999ZM33.7334 20.6999C33.7329 20.2766 33.39 19.9336 32.9667 19.9333H28.6841L33.7335 24.9825V21.4666V20.6999H33.7334ZM40.6334 28.3666C42.7495 28.3641 44.4642 26.6494 44.4667 24.5333V22.2333H35.2667V28.3666H40.6334ZM35.2666 42.9333H26.0666V44.4666H37.4353C37.1125 43.546 36.2422 42.9307 35.2666 42.9333ZM24.5334 44.4666V42.1666C24.5334 41.3198 23.8469 40.6333 23 40.6333C22.1531 40.6333 21.4666 41.3198 21.4666 42.1666V44.4666H24.5334ZM8.56472 44.4666H19.9334V42.9333H10.7334C9.75892 42.9343 8.89067 43.5483 8.56472 44.4666ZM19.1666 36.7999C19.1666 38.6324 18.362 40.276 17.0879 41.3999H20.0299C20.3703 40.0772 21.5709 39.0999 22.9999 39.0999C24.4289 39.0999 25.6295 40.0772 25.97 41.3999H28.9119C27.6378 40.276 26.8332 38.6324 26.8332 36.7999C26.8332 34.9674 27.6378 33.3238 28.9119 32.1999H17.0878C18.362 33.3238 19.1666 34.9674 19.1666 36.7999ZM1.53336 23.7666C1.53767 27.5756 4.62435 30.6623 8.43336 30.6666H32.9666C33.3899 30.6662 33.7329 30.3232 33.7333 29.9V29.1334V27.1508L26.5159 19.9334H22.934L29.2919 26.2913C29.5112 26.5105 29.5767 26.8403 29.4581 27.1267C29.3395 27.4131 29.06 27.5999 28.7499 27.6C28.5465 27.6003 28.3515 27.5194 28.2079 27.3754L20.7659 19.9334H1.53328V23.7666H1.53336Z" fill="black"/>
<path d="M43.7 12.2675H16.1V15.2974C16.109 16.1539 15.4231 16.8562 14.5666 16.8675H8.43327C7.57679 16.8562 6.89093 16.1539 6.89991 15.2974V6.49123C6.8973 5.72917 7.25623 5.01114 7.86726 4.55581L13.6735 0.295783C14.1304 -0.0425685 14.7395 -0.0932404 15.2461 0.164791C15.7745 0.434232 16.1051 0.979224 16.1 1.57237V6.13419H43.7C44.9697 6.13545 45.9987 7.16443 46 8.4341V9.96746C45.9987 11.2371 44.9697 12.266 43.7 12.2675ZM37.1174 7.66746L40.1841 10.7341H42.6156L39.5492 7.66746H37.1174ZM32.5174 7.66746L35.5841 10.7341H38.0159L34.9492 7.66746H32.5174ZM27.9174 7.66746L30.9841 10.7341H33.4159L30.3492 7.66746H27.9174ZM23.3174 7.66746L26.3841 10.7341H28.8159L25.7492 7.66746H23.3174ZM18.7174 7.66746L21.7841 10.7341H24.2159L21.1493 7.66746H18.7174ZM8.77432 5.79197C8.55645 5.95809 8.43004 6.21738 8.43327 6.49123L8.44783 15.3341L14.5665 15.2974L14.5703 11.5767C14.5678 11.5516 14.5665 11.5262 14.5665 11.5008V6.90082C14.5665 6.86435 14.57 6.82832 14.5751 6.79265L14.5804 1.53266L8.77432 5.79197ZM16.1 10.7341H19.6159L16.5493 7.66746H16.1001V10.7341H16.1ZM44.4666 8.4341C44.4662 8.01084 44.1233 7.66782 43.7 7.66746H41.7173L44.3767 10.327C44.4338 10.2197 44.4665 10.0975 44.4667 9.96746V8.4341H44.4666Z" fill="black"/>
<path d="M18.4004 23.0001H7.66699C7.24356 23.0001 6.90035 22.6569 6.90035 22.2334C6.90035 21.81 7.24356 21.4668 7.66699 21.4668H18.4004C18.8238 21.4668 19.167 21.81 19.167 22.2334C19.167 22.6569 18.8238 23.0001 18.4004 23.0001Z" fill="black"/>
<path d="M4.60006 23.0001H3.83343C3.40999 23.0001 3.06679 22.6569 3.06679 22.2334C3.06679 21.81 3.40999 21.4668 3.83343 21.4668H4.60006C5.0235 21.4668 5.3667 21.81 5.3667 22.2334C5.3667 22.6569 5.0235 23.0001 4.60006 23.0001Z" fill="black"/>
</g>
<defs>
<clipPath id="clip0">
<rect width="46" height="46" fill="white" transform="matrix(-1 0 0 1 46 0)"/>
</clipPath>
</defs>
</svg>
