<svg width="18" height="15" viewBox="0 0 18 15" fill="none" xmlns="http://www.w3.org/2000/svg">
<path d="M12.0271 0.00332963V0H12.8711L13.1794 0.063263C13.385 0.104334 13.5717 0.158158 13.7394 0.22475C13.9071 0.291343 14.0694 0.36904 14.2263 0.457825C14.3832 0.546609 14.5255 0.637075 14.6532 0.72919C14.7798 0.820205 14.8934 0.916765 14.9941 1.01887C15.0936 1.12209 15.2489 1.14872 15.4599 1.09878C15.6709 1.04883 15.8981 0.979462 16.1416 0.890677C16.385 0.801892 16.6258 0.702003 16.8638 0.59101C17.1019 0.480017 17.2469 0.409545 17.2988 0.379578C17.3497 0.348513 17.3768 0.331865 17.38 0.329634L17.3832 0.324639L17.3995 0.316315L17.4157 0.307991L17.4319 0.299667L17.4482 0.291343L17.4514 0.286349L17.4563 0.283019L17.4612 0.279689L17.4644 0.274695L17.4806 0.2697L17.4968 0.266371L17.4936 0.291343L17.4887 0.316315L17.4806 0.341287L17.4725 0.36626L17.4644 0.382908L17.4563 0.399556L17.4482 0.424528C17.4427 0.441176 17.4373 0.463369 17.4319 0.491121C17.4265 0.518874 17.3751 0.62985 17.2777 0.824084C17.1803 1.01832 17.0586 1.21532 16.9125 1.41509C16.7665 1.61487 16.6355 1.7658 16.5198 1.86792C16.4029 1.97114 16.3255 2.04328 16.2876 2.08435C16.2498 2.12652 16.2038 2.16536 16.1497 2.20089L16.0685 2.25583L16.0523 2.26415L16.0361 2.27248L16.0328 2.27747L16.028 2.2808L16.0231 2.28413L16.0198 2.28912L16.0036 2.29745L15.9874 2.30577L15.9841 2.31077L15.9793 2.3141L15.9744 2.31743L15.9711 2.32242L15.9679 2.32741L15.963 2.33074L15.9582 2.33407L15.9549 2.33907H16.0361L16.4905 2.23918C16.7935 2.17259 17.083 2.09213 17.3589 1.99778L17.7971 1.84795L17.8458 1.8313L17.8702 1.82297L17.8864 1.81465L17.9026 1.80633L17.9188 1.798L17.9351 1.78968L17.9675 1.78468L18 1.78135V1.81465L17.9919 1.81798L17.9838 1.82297L17.9805 1.82797L17.9757 1.8313L17.9708 1.83463L17.9675 1.83962L17.9643 1.84462L17.9594 1.84795L17.9546 1.85128L17.9513 1.85627L17.9481 1.86127L17.9432 1.86459L17.9351 1.88124L17.927 1.89789L17.9221 1.90122C17.9199 1.90455 17.8512 1.99888 17.716 2.18424C17.5807 2.3707 17.5077 2.46503 17.4968 2.46726C17.486 2.47059 17.4709 2.48724 17.4514 2.5172C17.433 2.54827 17.3183 2.67203 17.1073 2.88846C16.8963 3.10488 16.6897 3.29744 16.4873 3.46615C16.2839 3.63596 16.1811 3.84461 16.1789 4.09212C16.1757 4.33851 16.1632 4.6171 16.1416 4.92786C16.1199 5.23863 16.0794 5.57436 16.0198 5.93507C15.9603 6.29579 15.8684 6.70367 15.7439 7.15871C15.6195 7.61376 15.468 8.05771 15.2894 8.49057C15.1109 8.92342 14.9243 9.31187 14.7295 9.65594C14.5347 10 14.3562 10.2913 14.1939 10.53C14.0316 10.7686 13.8666 10.9933 13.6988 11.2042C13.5311 11.4151 13.319 11.6526 13.0626 11.9168C12.8051 12.1798 12.6644 12.3241 12.6406 12.3496C12.6157 12.374 12.5097 12.4651 12.3225 12.6226C12.1363 12.7813 11.9362 12.9401 11.7219 13.0988C11.5088 13.2564 11.3129 13.3879 11.1344 13.4933C10.9558 13.5988 10.7405 13.7192 10.4884 13.8546C10.2373 13.9911 9.96573 14.1176 9.67358 14.2342C9.38142 14.3507 9.07304 14.4589 8.74842 14.5588C8.42381 14.6587 8.11001 14.7364 7.80703 14.7919C7.50407 14.8474 7.16051 14.8946 6.77638 14.9334L6.20018 14.9917V15H5.14518V14.9917L5.00721 14.9834C4.91525 14.9778 4.8395 14.9722 4.77998 14.9667C4.72048 14.9612 4.49594 14.9306 4.1064 14.8751C3.71686 14.8197 3.41119 14.7641 3.18936 14.7087C2.96755 14.6532 2.63751 14.5477 2.19928 14.3923C1.76105 14.237 1.38611 14.0799 1.07448 13.9212C0.763937 13.7636 0.569167 13.6637 0.490171 13.6215C0.412263 13.5805 0.324617 13.5294 0.227232 13.4684L0.0811542 13.3768L0.0779243 13.3718L0.0730388 13.3685L0.0681695 13.3652L0.0649234 13.3602L0.0486925 13.3518L0.0324617 13.3435L0.0292317 13.3385L0.0243463 13.3352L0.019477 13.3319L0.0162308 13.3269L0.0130009 13.3219L0.00811542 13.3185H0V13.2852L0.0162308 13.2886L0.0324617 13.2936L0.1055 13.3019C0.154193 13.3074 0.28675 13.3158 0.503156 13.3269C0.719578 13.338 0.949504 13.338 1.19297 13.3269C1.43643 13.3158 1.68531 13.2908 1.93959 13.2519C2.19387 13.2131 2.49414 13.1465 2.8404 13.0522C3.18667 12.9578 3.50479 12.8457 3.79479 12.7159C4.0837 12.5849 4.28927 12.4872 4.41156 12.4229C4.53274 12.3596 4.71777 12.2419 4.96664 12.0699L5.33995 11.8119L5.34319 11.8069L5.34806 11.8036L5.35295 11.8002L5.35618 11.7952L5.35942 11.7902L5.36429 11.7869L5.36918 11.7836L5.37241 11.7786L5.38864 11.7736L5.40487 11.7703L5.40812 11.7536L5.41298 11.737L5.41787 11.7336L5.4211 11.7286L5.29125 11.7203C5.20469 11.7148 5.12083 11.7092 5.03968 11.7037C4.95852 11.6981 4.83138 11.6731 4.65825 11.6287C4.48513 11.5843 4.29848 11.5178 4.09829 11.429C3.89811 11.3402 3.70334 11.2347 3.51398 11.1127C3.32463 10.9906 3.18774 10.889 3.10334 10.808C3.02002 10.7281 2.91181 10.6149 2.77872 10.4684C2.64671 10.3208 2.53201 10.1693 2.43463 10.0139C2.33724 9.8585 2.24419 9.67923 2.15547 9.47614L2.02074 9.17314L2.01262 9.14817L2.00451 9.1232L1.99964 9.10655L1.99639 9.0899L2.02074 9.09323L2.04509 9.09822L2.22362 9.1232C2.34266 9.13985 2.52932 9.14539 2.78359 9.13985C3.03788 9.1343 3.21371 9.1232 3.31109 9.10655C3.40848 9.0899 3.46799 9.0788 3.48963 9.07325L3.52209 9.06493L3.56267 9.0566L3.60325 9.04828L3.60649 9.04329L3.61136 9.03996L3.61625 9.03663L3.61948 9.03163L3.58702 9.02331L3.55455 9.01498L3.52209 9.00666L3.48963 8.99834L3.45717 8.99001C3.43553 8.98447 3.39767 8.97336 3.34355 8.95672C3.28946 8.94007 3.14338 8.87902 2.90532 8.77359C2.66728 8.66815 2.47791 8.56548 2.33724 8.46559C2.19622 8.36542 2.06176 8.25586 1.93472 8.13763C1.80812 8.01776 1.66908 7.86348 1.51758 7.67481C1.3661 7.48613 1.23085 7.26693 1.11181 7.0172C0.992792 6.76748 0.903522 6.52886 0.844004 6.30133C0.784724 6.07514 0.745615 5.84389 0.727158 5.61043L0.697926 5.26082L0.714157 5.26415L0.730388 5.26915L0.746619 5.27747L0.762849 5.28579L0.77908 5.29412L0.795311 5.30244L1.04689 5.41898C1.21462 5.49668 1.42291 5.56327 1.67178 5.61876C1.92066 5.67425 2.06943 5.70478 2.11812 5.71032L2.19116 5.71865H2.33724L2.33401 5.71365L2.32913 5.71032L2.32426 5.70699L2.32101 5.702L2.31778 5.697L2.31289 5.69367L2.30803 5.69034L2.30478 5.68535L2.28855 5.67703L2.27232 5.6687L2.26909 5.66371L2.2642 5.66038L2.25933 5.65705L2.25609 5.65205L2.23986 5.64373L2.22362 5.63541L2.22039 5.63041C2.21715 5.62818 2.17061 5.59267 2.08079 5.52386C1.99206 5.45394 1.89901 5.36349 1.80162 5.2525C1.70424 5.1415 1.60685 5.02497 1.50947 4.90289C1.4119 4.78053 1.32501 4.64961 1.24977 4.51165C1.17404 4.37292 1.09396 4.19644 1.00956 3.98224C0.926245 3.76915 0.862945 3.55438 0.819657 3.33796C0.776386 3.12153 0.75204 2.90789 0.746619 2.697C0.741214 2.48612 0.746619 2.30577 0.762849 2.15594C0.77908 2.0061 0.811542 1.83684 0.860234 1.64817C0.908927 1.4595 0.979271 1.25972 1.07124 1.04883L1.2092 0.732519L1.21731 0.707547L1.22543 0.682575L1.23031 0.679245L1.23354 0.674251L1.23679 0.669256L1.24166 0.665927L1.24654 0.669256L1.24977 0.674251L1.25302 0.679245L1.25789 0.682575L1.26278 0.685905L1.26601 0.690899L1.26925 0.695893L1.27412 0.699223L1.28224 0.715871L1.29035 0.732519L1.29524 0.735849L1.29847 0.740844L1.51758 0.990566C1.66366 1.15705 1.8368 1.34296 2.03697 1.54828C2.23716 1.7536 2.34807 1.86015 2.3697 1.86792C2.39135 1.8768 2.41839 1.90232 2.45086 1.94451C2.48332 1.98558 2.59153 2.0838 2.77547 2.23918C2.95943 2.39456 3.20019 2.57492 3.49775 2.78024C3.79532 2.98557 4.12534 3.18812 4.48783 3.3879C4.85033 3.58768 5.23987 3.76803 5.65645 3.92897C6.07304 4.08991 6.3652 4.19534 6.53291 4.24528C6.70064 4.29523 6.98738 4.35904 7.39315 4.43674C7.79892 4.51443 8.10461 4.56438 8.31019 4.58657C8.51579 4.60876 8.65646 4.62153 8.73219 4.62486L8.84581 4.62819L8.84258 4.60322L8.83769 4.57825L8.80523 4.37014C8.78359 4.23142 8.77277 4.03718 8.77277 3.78746C8.77277 3.53774 8.79171 3.30744 8.82958 3.09656C8.86746 2.88568 8.92427 2.67203 9 2.45561C9.07575 2.23918 9.14988 2.06547 9.22236 1.93452C9.29595 1.80466 9.39225 1.65649 9.51127 1.49001C9.63031 1.32353 9.7845 1.1515 9.97385 0.973918C10.1632 0.796332 10.3796 0.638174 10.6231 0.499445C10.8665 0.360716 11.0911 0.255266 11.2967 0.18313C11.5023 0.110993 11.6754 0.0638124 11.8161 0.0416204C11.9567 0.0194284 12.0271 0.00665927 12.0271 0.00332963V0.00332963Z" fill="#1E2245"/>
</svg>
