<svg width="36" height="36" viewBox="0 0 36 36" fill="none" xmlns="http://www.w3.org/2000/svg">
<circle opacity="0.3" cx="18" cy="18" r="18" fill="#F1C88A"/>
<path d="M17.0775 10.2199C17.4191 9.39864 18.5825 9.39864 18.9241 10.2199L20.4113 13.7955C20.5553 14.1417 20.8809 14.3783 21.2547 14.4082L25.1148 14.7177C26.0014 14.7888 26.3609 15.8953 25.6854 16.474L22.7444 18.9932C22.4596 19.2372 22.3353 19.6199 22.4223 19.9847L23.3208 23.7515C23.5272 24.6167 22.5859 25.3006 21.8268 24.8369L18.5221 22.8184C18.202 22.6229 17.7996 22.6229 17.4795 22.8184L14.1748 24.8369C13.4157 25.3006 12.4744 24.6167 12.6808 23.7515L13.5793 19.9847C13.6663 19.6199 13.542 19.2372 13.2572 18.9932L10.3162 16.474C9.64065 15.8953 10.0002 14.7888 10.8868 14.7177L14.7469 14.4082C15.1207 14.3783 15.4463 14.1417 15.5903 13.7955L17.0775 10.2199Z" fill="#F1C88A"/>
</svg>
